<svg fill="currentColor" version="1.1" viewBox="0 0 256 256" xmlns="http://www.w3.org/2000/svg">
 <path d="m127 245.9c-0.5698-10.55-13.84-54.05-16.55-64.25-14.64-1.006-17.99-3.84-32.02-7.962-8.809 4.437-20.13 11.87-32.45 17.79 7.854-10.07 13.91-17.64 18.1-26.02-15.65-9.232-38.91-24.49-53.62-41.74 14.95-19.47 35.06-32.91 54.96-42.71-3.753-8.843-9.791-15.74-15.7-30.17 13.07 8.707 20.62 17.59 28.72 22.96 14.02-4.121 19.54-7.401 35.87-9.374 3.015-10.32 10.52-43.91 11.78-54.3 1.039 10.71 6.957 43.67 9.899 54.05 14.64 1.006 25.54 5.49 39.57 9.614 8.738-4.535 17.87-11.55 31.42-17.43-6.353 10.03-11.61 15.61-16.72 24.28 15.91 8.898 37.84 24.19 55.22 43.08-14.72 13.88-38.57 31.76-55.79 42.23-0.2936 10.24 9.429 34.29 9.429 34.29s-15.43-17.55-24.75-27.11c-10.66 3.215-19.39 6.92-30.49 7.839zm0-75.05c18.29-0.0269 43.08-8.318 59.51-16.77 16.43-8.456 30.89-20.28 42.08-30.36-16.21-14.17-32.28-25.03-43.42-31.06-11.14-6.011-37.61-15.44-58.17-15.93-20.56-0.4971-51.09 10.47-65.25 19.18-14.17 8.724-22.17 16.75-35.32 27.79 17.52 15.47 33.93 28.38 51.39 35.89 17.47 7.514 30.89 11.27 49.18 11.24z" stroke-width="1.888"/>
 <path d="m127 82.42a41.25 41.25 0 0 0-41.25 41.25 41.25 41.25 0 0 0 41.25 41.25 41.25 41.25 0 0 0 41.25-41.25 41.25 41.25 0 0 0-41.25-41.25m-5.351 16.18a23.28 23.28 0 0 0-12.66 21.67 23.28 23.28 0 0 0 24.2 22.3 23.28 23.28 0 0 0 21.2-16.34 26.73 26.73 0 0 1-25.53 25.03 26.73 26.73 0 0 1-27.81-25.6 26.73 26.73 0 0 1 20.58-27.05z" stroke-width="1.888"/>
</svg>
