<svg version="1.1" viewBox="0 0 32 32" xmlns="http://www.w3.org/2000/svg">
 <path d="m9.268 2.994a8.476 8.476 0 0 0-5.256 2.451 8.476 8.476 0 0 0 0 11.99l11.99 11.99 11.99-11.99a8.476 8.476 0 0 0 0-11.99 8.476 8.476 0 0 0-11.99 0.001953 8.476 8.476 0 0 0-6.734-2.453zm0.8496 1.99c0.3742 0.004111 0.7479 0.03777 1.115 0.1172 1.95 0.2866 3.333 1.769 4.77 2.975 0.579-0.4938 1.158-0.9882 1.736-1.482 2.325-2.155 6.262-2.135 8.566 0.04297 2.612 2.16 2.886 6.457 0.6406 8.979-3.607 3.699-7.302 7.315-10.94 10.98l-9.947-9.947c-1.617-1.419-2.715-3.536-2.48-5.723 0.1633-2.909 2.554-5.447 5.422-5.879 0.3716-0.04244 0.7469-0.06856 1.121-0.06445z" fill="#b0b0b0"/>
</svg>
